<svg width="1200" height="768" viewBox="0 0 1200 768" fill="none" xmlns="http://www.w3.org/2000/svg">
  <rect width="1200" height="768" fill="#FF7EB9"/>
  <g>
    <ellipse cx="600" cy="384" rx="500" ry="320" fill="#FF8FCB" opacity="0.2"/>
    <rect x="320" y="520" width="320" height="60" rx="8" fill="#fff" stroke="#222" stroke-width="3"/>
    <rect x="340" y="540" width="280" height="30" rx="4" fill="#fff"/>
    <g>
      <path d="M520 600 Q540 650 600 650 Q660 650 680 600" stroke="#222" stroke-width="4" fill="none"/>
      <ellipse cx="600" cy="600" rx="80" ry="60" fill="#222"/>
      <ellipse cx="600" cy="600" rx="70" ry="50" fill="#fff"/>
      <ellipse cx="600" cy="600" rx="40" ry="30" fill="#FF7EB9"/>
    </g>
    <g>
      <rect x="700" y="320" width="180" height="100" rx="18" fill="#fff" stroke="#222" stroke-width="3"/>
      <circle cx="770" cy="370" r="18" fill="#fff" stroke="#222" stroke-width="3"/>
      <path d="M740 370 Q770 390 800 370" stroke="#222" stroke-width="3" fill="none"/>
    </g>
    <g>
      <rect x="400" y="320" width="180" height="100" rx="18" fill="#fff" stroke="#222" stroke-width="3"/>
      <circle cx="470" cy="370" r="18" fill="#fff" stroke="#222" stroke-width="3"/>
      <path d="M440 370 Q470 390 500 370" stroke="#222" stroke-width="3" fill="none"/>
    </g>
    <g>
      <path d="M600 200 Q620 160 660 160 Q700 160 720 200" stroke="#222" stroke-width="4" fill="none"/>
      <ellipse cx="660" cy="200" rx="60" ry="40" fill="#fff"/>
      <ellipse cx="660" cy="200" rx="40" ry="25" fill="#FF7EB9"/>
      <circle cx="660" cy="200" r="18" fill="#fff" stroke="#222" stroke-width="3"/>
      <path d="M642 200 Q660 220 678 200" stroke="#222" stroke-width="3" fill="none"/>
    </g>
    <g>
      <rect x="550" y="300" width="100" height="180" rx="30" fill="#222"/>
      <ellipse cx="600" cy="340" rx="40" ry="30" fill="#fff"/>
      <ellipse cx="600" cy="340" rx="20" ry="15" fill="#FF7EB9"/>
      <ellipse cx="600" cy="340" rx="8" ry="6" fill="#fff"/>
      <ellipse cx="600" cy="340" rx="4" ry="3" fill="#222"/>
    </g>
    <g>
      <rect x="800" y="400" width="120" height="80" rx="16" fill="#fff" stroke="#222" stroke-width="3"/>
      <circle cx="860" cy="440" r="16" fill="#fff" stroke="#222" stroke-width="3"/>
      <path d="M830 440 Q860 460 890 440" stroke="#222" stroke-width="3" fill="none"/>
    </g>
    <g>
      <rect x="280" y="400" width="120" height="80" rx="16" fill="#fff" stroke="#222" stroke-width="3"/>
      <circle cx="340" cy="440" r="16" fill="#fff" stroke="#222" stroke-width="3"/>
      <path d="M310 440 Q340 460 370 440" stroke="#222" stroke-width="3" fill="none"/>
    </g>
    <g>
      <ellipse cx="600" cy="384" rx="500" ry="320" fill="#fff" opacity="0.08"/>
      <ellipse cx="600" cy="384" rx="400" ry="260" fill="#fff" opacity="0.08"/>
    </g>
  </g>
</svg>
